# xmcd CD database file
#
# Track frame offsets:
#	150
#	15763
#	29023
#	44590
#	61983
#	75435
#	89220
#	103995
#	119033
#	133235
#	147960
#	163498
#	175000
#	186253
#
# Disc length: 2686 seconds
#
# Revision: 0
# Processed by: cddbd v1.5.2PL0 Copyright (c) Steve Scherf et al.
# Submitted via: CDex 1.70beta2
#
DISCID=cf0a7c0e
DTITLE=Holiday, Billy - The Great Jazz Series
DYEAR=1991
DGENRE=Jazz
TTITLE0=Violets for your furs
TTITLE1=God bless the child
TTITLE2=I'm a fool to want you
TTITLE3=You don't know what love is
TTITLE4=What a little moonlight can do
TTITLE5=Miss Brown to you
TTITLE6=I cried for you
TTITLE7=You've changed
TTITLE8=Willow deep for me
TTITLE9=Strange fruit
TTITLE10=Yesterdays
TTITLE11=All of you
TTITLE12=It's not for me to say
TTITLE13=All the way
EXTD=YEAR: 1991
EXTT0=
EXTT1=
EXTT2=
EXTT3=
EXTT4=
EXTT5=
EXTT6=
EXTT7=
EXTT8=
EXTT9=
EXTT10=
EXTT11=
EXTT12=
EXTT13=
PLAYORDER=
